<svg version="1.0" xmlns="http://www.w3.org/2000/svg"
 width="1244.000000pt" height="1224.000000pt" viewBox="0 0 1244.000000 1224.000000"
 preserveAspectRatio="xMidYMid meet">

<g transform="translate(0.000000,1224.000000) scale(0.100000,-0.100000)"
fill="#000000" stroke="none">
<path d="M10045 11691 c-393 -84 -1229 -461 -1875 -845 -63 -38 -133 -81 -155
-96 -22 -15 -94 -62 -159 -106 -240 -157 -422 -292 -671 -495 -129 -105 -289
-254 -460 -426 l-121 -123 -70 34 c-143 71 -385 140 -589 169 -221 32 -254 34
-475 32 -321 -3 -503 -25 -795 -96 -109 -27 -299 -86 -350 -109 -11 -5 -43
-18 -72 -29 -82 -32 -247 -116 -324 -166 -39 -25 -74 -46 -79 -48 -4 -1 -46
34 -92 78 -129 125 -327 305 -393 360 -33 27 -67 56 -76 64 -9 9 -58 50 -109
91 -52 41 -123 100 -159 130 -168 142 -476 362 -791 565 -209 135 -611 349
-815 434 -257 106 -401 157 -570 201 -182 47 -250 48 -261 4 -16 -61 203 -404
440 -690 28 -34 67 -81 86 -105 46 -57 223 -261 280 -322 131 -142 511 -518
615 -610 308 -272 704 -564 965 -713 64 -37 281 -149 308 -160 1 -1 -11 -42
-28 -91 -76 -229 -97 -418 -102 -913 -1 -195 -6 -391 -10 -435 -4 -44 -12
-145 -17 -225 -6 -80 -12 -154 -15 -165 -11 -58 -16 -347 -7 -406 20 -124 75
-259 152 -375 83 -125 265 -324 412 -451 56 -49 57 -43 -9 -175 -161 -320
-266 -710 -295 -1092 -10 -134 -7 -472 5 -531 2 -11 7 -49 10 -85 7 -65 20
-130 58 -293 11 -48 18 -90 15 -94 -3 -3 -36 -16 -72 -29 -142 -49 -309 -181
-394 -310 -28 -43 -52 -82 -55 -88 -5 -11 -15 -1 -94 97 -32 39 -64 66 -98 83
-63 30 -78 30 -101 1 -10 -12 -30 -27 -45 -34 -39 -17 -57 -60 -67 -160 -33
-335 111 -980 319 -1430 37 -79 44 -88 69 -89 l28 -1 -28 58 c-184 378 -330
930 -346 1304 -6 145 6 243 31 264 11 9 13 -9 15 -91 1 -99 6 -138 37 -298 35
-181 86 -335 108 -327 14 5 14 6 -18 152 -15 66 -33 156 -42 200 -8 44 -19
103 -24 130 -15 77 -22 227 -12 259 4 16 14 32 22 34 9 3 11 -1 7 -11 -18 -46
59 -398 128 -587 26 -70 78 -160 93 -160 8 0 12 6 10 13 -73 195 -176 562
-185 654 -9 94 9 85 114 -57 184 -250 367 -607 538 -1050 75 -195 88 -225 96
-234 27 -30 17 39 -26 169 -89 270 -273 669 -426 924 -38 63 -69 121 -69 129
0 32 69 142 133 208 102 109 255 207 342 221 35 6 32 11 79 -127 30 -91 48
-137 82 -210 59 -127 150 -303 198 -385 l47 -78 -3 -97 c-2 -71 1 -102 11
-114 17 -20 70 -21 136 -1 l50 16 27 -33 c15 -18 28 -36 28 -39 0 -4 14 -12
30 -19 28 -12 35 -10 91 25 l61 37 60 -31 c34 -17 69 -31 79 -31 10 0 45 25
78 56 l61 56 76 -31 c42 -17 87 -31 100 -31 32 0 60 32 97 112 30 65 32 67 87
83 71 20 141 55 154 77 11 19 -6 59 -68 158 l-34 55 -6 320 c-5 320 -22 525
-61 740 -9 50 -18 101 -20 115 -8 45 -35 164 -45 195 -60 192 -110 325 -148
397 -43 82 -85 138 -97 126 -3 -3 22 -64 54 -136 147 -322 216 -621 266 -1142
3 -30 8 -188 11 -350 6 -327 -3 -285 79 -407 21 -34 25 -46 16 -57 -11 -13
-124 -54 -166 -60 -12 -2 -34 -33 -64 -92 -54 -103 -53 -103 -164 -48 -67 34
-97 42 -97 26 0 -13 -101 -112 -113 -112 -7 0 -34 14 -62 30 -57 34 -95 38
-118 13 -9 -10 -32 -27 -53 -38 l-36 -19 -24 29 c-14 17 -27 40 -30 52 -8 29
-30 36 -64 18 -15 -8 -54 -18 -86 -21 l-57 -7 6 94 6 94 -63 110 c-80 139
-164 307 -206 410 -17 44 -40 100 -50 125 -43 107 -112 347 -131 455 -33 193
-42 294 -43 515 0 129 3 259 7 289 4 29 12 85 17 125 16 112 40 235 62 316 11
41 23 89 28 105 42 157 210 562 241 580 4 3 62 -34 128 -82 66 -48 155 -110
198 -137 96 -61 257 -140 274 -134 10 3 -192 148 -207 148 -2 0 -29 17 -60 38
-85 56 -99 65 -125 85 -13 9 -60 44 -104 76 -96 71 -229 184 -307 264 -32 31
-58 58 -58 60 0 1 42 2 93 3 80 0 99 4 147 28 153 78 246 237 257 441 11 212
-65 415 -212 561 -133 133 -269 172 -426 124 -63 -19 -81 -30 -136 -85 l-63
-63 0 33 c0 19 4 67 9 107 18 142 29 410 35 873 4 295 13 376 60 575 41 173
132 378 223 498 32 42 9 42 -37 -1 -46 -41 -80 -89 -116 -157 -15 -30 -29 -57
-30 -58 -5 -7 -255 126 -364 194 -325 201 -543 361 -805 588 -38 34 -85 75
-105 91 -50 43 -175 162 -310 295 -114 112 -117 117 -129 175 -38 191 -33 578
11 813 5 28 11 52 14 52 29 0 407 -207 579 -318 318 -204 471 -312 751 -529
181 -140 276 -220 619 -523 22 -19 84 -78 138 -130 54 -52 103 -97 109 -101 7
-4 -16 -32 -55 -69 -37 -34 -65 -66 -62 -70 3 -5 81 43 174 105 181 122 233
150 399 222 353 150 759 231 1202 238 237 4 363 -5 545 -41 286 -55 501 -135
673 -251 117 -78 124 -54 11 37 l-47 37 107 109 c111 114 330 319 416 390 48
40 123 101 250 202 33 27 83 63 110 82 28 19 61 44 75 56 50 43 391 272 520
348 66 39 82 49 110 67 157 102 848 459 888 459 35 0 53 -116 57 -360 4 -214
-8 -355 -44 -535 -29 -142 -39 -161 -131 -249 -71 -67 -226 -203 -290 -253 -8
-6 -60 -47 -115 -91 -355 -280 -775 -541 -1183 -735 l-123 -59 -69 66 c-63 59
-90 77 -90 60 0 -3 24 -35 54 -73 104 -130 168 -249 234 -431 36 -101 95 -354
121 -520 13 -80 55 -324 85 -487 13 -68 22 -123 21 -123 -2 0 -29 12 -61 26
-84 38 -198 44 -291 16 -209 -64 -364 -260 -389 -492 -3 -30 -7 -57 -9 -60 -1
-3 1 -52 6 -110 14 -174 69 -309 169 -410 73 -74 141 -108 245 -123 l83 -12
-45 -50 c-282 -314 -502 -604 -670 -885 -66 -111 -81 -142 -104 -208 -27 -78
-13 -83 30 -10 20 35 63 108 96 163 326 557 828 1120 1345 1508 63 48 120 90
125 95 6 4 49 34 98 66 72 49 93 69 124 120 42 71 71 106 89 106 7 0 39 -36
70 -80 55 -77 87 -94 64 -35 -6 15 -9 29 -8 30 16 10 120 54 134 57 23 4 45
-39 52 -99 7 -60 23 -71 70 -46 33 18 91 37 93 31 0 -2 6 -37 12 -78 l12 -75
45 -1 c110 -2 103 1 96 -44 -21 -133 -22 -120 10 -120 37 0 102 -18 109 -30 4
-6 -10 -47 -30 -93 -20 -45 -46 -113 -57 -150 -62 -214 -280 -672 -459 -967
-5 -8 -16 -28 -25 -45 -16 -29 -227 -348 -269 -406 -61 -85 -214 -276 -284
-354 -142 -159 -366 -377 -488 -474 -24 -19 -43 -38 -43 -43 0 -14 34 -9 74
13 45 24 202 154 209 172 8 22 14 3 52 -158 50 -215 61 -265 144 -655 23 -107
52 -244 66 -305 50 -230 109 -561 123 -700 14 -123 14 -381 2 -517 -24 -261
-66 -445 -155 -688 -23 -60 -102 -213 -142 -271 -90 -133 -222 -253 -349 -317
-64 -33 -182 -63 -188 -49 -3 9 -7 9 -13 -1 -16 -22 -74 -32 -222 -39 -139 -6
-144 -6 -138 13 3 10 18 52 32 93 93 262 166 901 166 1441 0 241 -5 333 -29
503 -8 55 -8 57 14 57 63 0 241 -73 406 -166 43 -24 83 -44 90 -44 6 0 -5 17
-25 38 -43 44 -166 120 -247 153 -73 29 -209 69 -236 69 -16 0 -25 11 -39 45
-17 47 -56 82 -75 70 -6 -4 -22 3 -34 14 -19 18 -30 21 -65 15 -45 -7 -77 -37
-112 -105 -14 -29 -26 -39 -43 -39 -50 0 -205 -53 -311 -105 -133 -67 -251
-153 -375 -277 -90 -89 -180 -210 -162 -216 5 -1 58 48 118 109 216 220 383
336 580 403 71 24 154 42 154 33 0 -2 -9 -33 -21 -68 -51 -161 -105 -397 -150
-664 -25 -152 -38 -390 -20 -408 6 -6 13 -9 15 -6 5 5 18 108 37 304 16 168
96 558 146 710 51 158 98 265 114 265 5 0 9 -2 9 -5 0 -31 -35 -376 -50 -495
-23 -175 -24 -220 -10 -220 33 0 61 177 94 595 10 127 13 147 24 128 33 -59
34 -188 6 -626 -9 -146 18 -126 46 33 7 36 13 179 13 317 1 164 6 252 12 250
17 -6 43 -103 62 -235 14 -103 18 -190 17 -462 -1 -321 -4 -384 -39 -710 -43
-399 -124 -738 -197 -831 -16 -20 -52 -39 -73 -39 -30 0 -83 50 -108 103 -33
67 -73 214 -82 297 -4 36 -8 79 -10 95 -4 38 -16 184 -20 248 -2 47 -10 66
-20 55 -13 -13 -20 -143 -14 -248 9 -139 32 -282 60 -368 12 -35 19 -65 16
-68 -4 -4 -328 78 -497 126 -450 128 -611 159 -844 163 -108 1 -325 -10 -451
-23 -120 -13 -519 -56 -675 -72 -137 -14 -523 -18 -581 -5 -36 7 -37 8 -43 70
-7 61 -19 97 -30 86 -3 -3 -8 -44 -10 -90 -8 -172 -60 -261 -137 -242 -59 15
-179 120 -259 228 -89 120 -138 200 -212 348 -21 40 -37 59 -54 63 -14 4 -27
5 -29 2 -14 -13 171 -336 263 -457 50 -68 179 -188 223 -209 103 -50 195 -8
229 104 l12 40 251 0 c139 0 304 5 367 12 63 7 138 15 165 17 57 6 265 28 470
50 339 37 592 39 776 6 108 -19 328 -74 544 -135 229 -66 432 -117 517 -131
25 -4 44 -16 63 -40 56 -74 146 -90 207 -36 33 28 34 29 163 29 387 0 619 109
831 389 30 39 54 74 54 76 0 3 15 30 34 61 50 84 123 272 161 419 57 221 79
419 80 718 l0 236 194 89 c385 176 416 192 419 206 1 7 -38 92 -88 188 -190
367 -374 739 -369 744 5 5 128 50 724 267 304 110 335 123 335 141 0 10 -97
212 -216 450 -419 837 -496 1000 -482 1013 7 7 56 23 108 35 52 12 122 31 155
41 33 10 112 32 175 49 63 17 183 49 265 72 147 39 426 113 795 208 102 27
273 72 380 100 107 28 281 73 385 100 105 27 271 71 370 97 l180 48 7 100 c3
55 9 152 12 215 4 63 9 140 11 170 3 30 10 154 15 275 6 121 12 252 15 290 15
207 26 403 35 595 6 118 15 280 20 360 5 80 12 213 15 295 3 83 10 200 15 260
6 61 10 152 10 203 0 91 0 92 -24 92 -32 0 -570 -197 -628 -230 -10 -6 -23
-10 -29 -10 -10 0 -237 -91 -326 -131 -24 -10 -46 -19 -49 -19 -3 0 -20 -6
-37 -14 -18 -8 -72 -31 -122 -51 -49 -19 -99 -40 -110 -45 -11 -5 -90 -38
-175 -74 -85 -35 -202 -84 -260 -109 -58 -25 -161 -68 -230 -97 -153 -64 -558
-238 -761 -329 -25 -11 -68 -29 -95 -39 -27 -11 -74 -31 -104 -45 -86 -39
-308 -137 -380 -168 -167 -70 -595 -261 -677 -303 -51 -25 -94 -46 -97 -46 -7
0 -25 90 -65 330 -22 129 -49 289 -61 355 -21 122 -80 357 -107 430 -33 87
-90 211 -120 258 -24 38 -23 57 1 57 12 0 326 155 366 180 8 5 76 44 150 86
339 193 676 431 998 707 257 220 569 535 751 757 25 30 48 57 51 60 3 3 24 27
45 55 22 27 48 58 57 68 29 33 223 308 287 407 88 136 163 292 169 350 4 43 2
48 -19 53 -33 9 -52 7 -144 -12z m-230 -181 c3 -5 -1 -10 -9 -10 -9 0 -16 5
-16 10 0 6 4 10 9 10 6 0 13 -4 16 -10z m1931 -2387 c-3 -49 -8 -142 -11 -208
-6 -146 -14 -282 -20 -355 -3 -30 -7 -113 -10 -185 -2 -71 -13 -283 -24 -470
-12 -187 -25 -423 -31 -525 -22 -426 -53 -935 -56 -939 -2 -2 -29 -9 -61 -16
-32 -7 -137 -34 -233 -60 -96 -26 -191 -51 -210 -55 -19 -5 -129 -33 -245 -63
-115 -30 -318 -82 -450 -117 -132 -34 -271 -70 -310 -81 -38 -10 -166 -43
-284 -74 -118 -30 -237 -62 -265 -70 -53 -15 -266 -74 -371 -102 -33 -9 -89
-24 -125 -35 -36 -11 -83 -23 -105 -27 -22 -5 -48 -12 -57 -16 -12 -5 8 43 60
147 139 274 167 342 329 795 15 44 23 81 19 96 -6 26 -40 44 -91 49 -25 3 -30
7 -28 28 11 134 2 149 -89 150 -55 0 -58 1 -58 25 0 13 -5 47 -11 75 -13 62
-33 70 -110 41 -30 -12 -55 -21 -56 -21 -1 0 -5 20 -8 44 -4 24 -15 58 -26 75
-25 41 -57 41 -149 -1 l-71 -31 -16 23 c-60 85 -123 89 -169 12 -70 -115 -87
-133 -161 -183 -109 -74 -282 -203 -388 -291 l-90 -75 0 196 c0 200 -13 318
-56 526 -22 105 -27 97 86 150 39 18 108 51 155 72 47 22 114 53 150 68 36 15
101 44 145 65 44 21 91 41 105 45 14 4 30 11 35 15 6 4 48 24 95 43 47 19 110
46 140 60 30 14 120 53 200 87 80 34 182 79 228 101 46 21 86 39 89 39 3 0 72
29 152 64 80 35 281 121 446 191 165 70 314 133 330 140 17 8 91 39 165 70 74
31 164 69 200 84 36 16 81 34 100 41 19 7 53 21 75 31 22 9 81 34 130 54 50
20 104 42 120 50 53 23 314 125 321 125 3 0 20 6 37 14 86 40 509 195 531 196
5 0 6 -39 2 -87z m-2887 -3693 c40 -80 76 -153 81 -162 6 -10 14 -26 20 -35 8
-15 499 -1005 508 -1025 2 -4 -12 -11 -30 -16 -30 -9 -409 -146 -533 -192 -84
-32 -314 -115 -412 -150 -76 -27 -93 -36 -93 -53 0 -11 21 -61 47 -111 26 -50
57 -111 70 -136 33 -65 29 -70 -22 -20 -24 24 -47 41 -51 38 -5 -5 4 -71 34
-243 4 -27 3 -28 -11 -17 -9 8 -42 54 -73 103 -58 91 -81 111 -70 62 13 -63
46 -287 42 -291 -3 -2 -16 13 -29 35 -14 21 -46 72 -73 113 -27 41 -57 92 -68
113 -14 25 -25 36 -36 32 -17 -5 -21 10 -56 185 -7 36 -22 106 -34 155 -12 50
-28 119 -35 155 -8 36 -23 103 -34 149 -11 47 -19 86 -18 87 1 1 65 28 142 59
77 32 167 69 200 83 33 13 87 34 120 46 36 13 61 28 63 39 3 17 -15 45 -167
257 l-90 125 35 40 c110 127 309 415 443 638 29 49 54 87 56 85 1 -2 35 -68
74 -148z m-589 -717 c22 -32 67 -97 100 -145 33 -47 64 -89 70 -93 24 -15 6
-32 -57 -57 -38 -15 -102 -41 -143 -59 -190 -79 -264 -107 -272 -103 -4 3 -8
16 -8 29 0 13 -4 34 -9 47 -5 14 -12 49 -15 79 l-7 54 83 85 c46 47 110 115
142 153 32 37 62 67 67 67 4 0 26 -26 49 -57z"/>
<path d="M8389 9189 c-19 -16 -20 -18 -4 -10 34 17 51 31 39 31 -7 0 -22 -9
-35 -21z"/>
<path d="M8323 9149 c-35 -22 -46 -37 -15 -20 22 13 58 40 52 41 -3 0 -20 -10
-37 -21z"/>
<path d="M8217 9086 c-32 -19 -64 -39 -70 -46 -15 -16 102 48 123 66 21 20 12
17 -53 -20z"/>
<path d="M7978 8957 c-32 -17 -56 -33 -54 -35 6 -6 126 52 126 61 0 11 -10 7
-72 -26z"/>
<path d="M7875 8900 c-33 -22 -29 -26 10 -8 14 6 25 15 25 20 0 11 -1 11 -35
-12z"/>
<path d="M7455 8790 c-3 -11 -3 -25 0 -30 10 -16 35 8 35 31 0 25 -27 24 -35
-1z"/>
<path d="M6445 8306 c-203 -51 -334 -256 -296 -464 23 -126 107 -239 216 -292
53 -25 160 -41 225 -33 55 7 154 53 197 91 131 117 171 324 95 483 -79 164
-268 257 -437 215z m33 -105 c28 -15 60 -54 75 -91 43 -104 -47 -220 -161
-207 -102 11 -164 110 -132 208 14 41 66 92 105 102 26 7 91 0 113 -12z"/>
<path d="M3902 8030 c-164 -59 -265 -202 -264 -375 0 -80 16 -136 57 -210 51
-90 121 -145 216 -171 234 -62 458 95 479 336 11 130 -22 230 -106 320 -56 60
-123 96 -204 109 -87 14 -116 13 -178 -9z m278 -82 c57 -30 82 -65 87 -125 5
-61 -26 -118 -82 -150 -51 -29 -89 -29 -140 0 -55 31 -85 79 -85 137 0 58 30
106 85 137 51 29 80 29 135 1z"/>
<path d="M5208 7443 c-41 -11 -9 -70 50 -93 30 -12 36 -11 60 7 31 22 56 68
47 83 -6 10 -123 12 -157 3z"/>
<path d="M6167 7105 c-126 -198 -389 -239 -717 -110 -126 49 -152 53 -182 25
-13 -12 -39 -31 -58 -43 -19 -11 -47 -31 -62 -43 -33 -27 -145 -81 -208 -100
-71 -22 -192 -29 -247 -14 -71 19 -143 57 -185 98 -35 33 -38 34 -38 14 0 -50
88 -117 192 -148 33 -10 48 -20 48 -32 0 -53 109 -434 131 -456 5 -6 9 -16 9
-22 0 -18 101 -224 149 -307 56 -94 140 -204 205 -267 234 -228 444 -171 600
163 104 221 180 571 193 893 l6 152 34 16 c83 39 173 146 173 205 0 32 -12 25
-43 -24z m-792 -495 c3 -5 2 -10 -4 -10 -5 0 -13 5 -16 10 -3 6 -2 10 4 10 5
0 13 -4 16 -10z m370 -284 c44 -10 93 -23 108 -29 27 -11 29 -15 23 -59 -11
-100 -90 -323 -152 -428 -43 -73 -131 -164 -179 -184 -60 -26 -115 -20 -187
18 -105 55 -222 182 -314 341 -47 80 -106 193 -110 210 -5 21 11 30 131 76
186 72 489 96 680 55z"/>
<path d="M11430 6033 c-179 -46 -353 -91 -388 -100 -35 -8 -61 -17 -58 -20 10
-10 721 169 766 193 36 19 36 19 -320 -73z"/>
<path d="M10885 5890 c-66 -24 -46 -25 30 -1 33 11 51 19 40 19 -11 0 -42 -8
-70 -18z"/>
<path d="M10725 5845 c-40 -14 -40 -14 -5 -9 19 4 39 10 45 15 11 11 10 11
-40 -6z"/>
<path d="M10600 5820 c-30 -11 -72 -22 -92 -25 -21 -4 -40 -11 -44 -16 -8 -14
18 -11 82 10 33 10 74 22 91 25 18 4 35 12 38 17 9 13 -13 10 -75 -11z"/>
<path d="M10330 5749 c-36 -10 -99 -26 -140 -34 -41 -9 -84 -19 -95 -24 -11
-5 -45 -14 -75 -20 -59 -12 -176 -43 -225 -59 -16 -6 -59 -16 -95 -22 -36 -7
-70 -16 -77 -22 -7 -5 -27 -12 -45 -15 -34 -5 -44 -10 -37 -17 3 -3 20 -1 39
4 19 5 96 25 170 45 74 20 205 53 290 75 238 59 405 102 409 106 11 11 -61 0
-119 -17z"/>
<path d="M9448 5528 c-57 -15 -45 -25 16 -14 30 6 52 14 50 18 -6 10 -18 9
-66 -4z"/>
<path d="M9305 5485 c-38 -17 -33 -17 35 0 40 10 47 13 25 14 -16 0 -43 -6
-60 -14z"/>
<path d="M9480 3833 c-69 -25 -150 -54 -180 -64 -30 -11 -66 -25 -80 -33 -14
-7 -38 -16 -54 -20 -15 -4 -26 -10 -22 -13 3 -3 36 5 73 19 38 14 109 40 158
58 50 18 118 43 152 56 34 13 66 24 72 24 6 0 11 5 11 10 0 6 -1 10 -2 9 -2 0
-59 -21 -128 -46z"/>
<path d="M9100 3693 c-8 -2 -24 -8 -35 -13 -11 -4 -29 -11 -40 -15 -11 -4 -15
-9 -8 -12 6 -2 25 3 42 11 16 9 37 16 46 16 8 0 15 5 15 10 0 6 -1 10 -2 9 -2
0 -10 -3 -18 -6z"/>
<path d="M8978 3643 c7 -3 16 -2 19 1 4 3 -2 6 -13 5 -11 0 -14 -3 -6 -6z"/>
<path d="M8918 3623 c7 -3 16 -2 19 1 4 3 -2 6 -13 5 -11 0 -14 -3 -6 -6z"/>
<path d="M8935 2509 c-67 -34 -82 -45 -45 -34 30 9 129 65 115 65 -5 -1 -37
-14 -70 -31z"/>
<path d="M8835 2460 c-3 -5 -2 -10 4 -10 5 0 13 5 16 10 3 6 2 10 -4 10 -5 0
-13 -4 -16 -10z"/>
<path d="M8777 2434 c-16 -9 -26 -18 -23 -21 3 -3 20 4 38 16 38 24 27 28 -15
5z"/>
<path d="M8710 2400 c-8 -5 -10 -10 -5 -10 6 0 17 5 25 10 8 5 11 10 5 10 -5
0 -17 -5 -25 -10z"/>
<path d="M5177 933 c-4 -3 -7 -27 -7 -52 0 -44 1 -45 13 -21 7 14 18 25 24 25
6 0 15 3 19 8 4 4 -5 7 -20 7 -16 0 -25 4 -21 10 3 6 15 10 26 10 10 0 19 5
19 10 0 11 -43 14 -53 3z"/>
<path d="M5009 919 c-8 -5 -26 -6 -41 -3 -32 6 -46 -14 -40 -56 4 -27 36 -48
47 -30 3 5 21 6 40 3 23 -4 35 -2 35 6 0 6 -7 11 -17 11 -15 0 -15 1 0 18 31
34 11 74 -24 51z m21 -22 c0 -8 -9 -22 -20 -32 -19 -18 -20 -17 -20 1 0 20 17
44 32 44 4 0 8 -6 8 -13z m-60 -21 c0 -14 -5 -28 -10 -31 -13 -8 -24 20 -16
40 9 24 26 17 26 -9z"/>
<path d="M5072 918 c-16 -16 -15 -50 3 -74 15 -19 15 -19 34 4 34 39 -1 106
-37 70z m33 -38 c0 -13 -6 -25 -12 -27 -9 -3 -13 6 -13 27 0 21 4 30 13 28 6
-3 12 -15 12 -28z"/>
<path d="M5388 890 c-5 -44 0 -67 9 -42 4 10 8 10 20 1 12 -11 13 -8 8 14 -5
17 -3 27 4 27 6 0 11 -8 11 -19 0 -24 25 -45 46 -37 10 4 14 15 12 33 -3 26
-6 28 -48 28 -36 0 -46 4 -51 20 -4 14 -7 5 -11 -25z m95 -31 c-17 -17 -37 -1
-22 17 8 10 15 12 23 4 7 -7 7 -13 -1 -21z"/>
<path d="M4869 909 c-8 -5 -26 -6 -41 -3 -59 12 -91 -42 -48 -81 17 -15 24
-16 45 -7 14 6 25 17 25 25 0 20 30 58 41 51 5 -3 0 -17 -11 -31 -11 -14 -20
-30 -20 -34 0 -12 47 -11 55 1 3 6 -1 10 -10 10 -12 0 -14 4 -5 19 21 40 2 71
-31 50z m-29 -51 c0 -18 -21 -16 -47 5 -9 6 -13 5 -13 -3 0 -8 -3 -11 -6 -7
-12 12 5 22 35 22 23 0 31 -5 31 -17z"/>
<path d="M5248 893 c-9 -33 11 -52 50 -46 23 4 32 11 32 24 0 11 5 19 10 19 6
0 10 -9 10 -19 0 -11 5 -23 10 -26 6 -4 10 8 10 30 0 36 0 36 -37 33 -28 -2
-39 -8 -43 -22 -9 -31 -28 -30 -32 1 -3 26 -4 26 -10 6z"/>
<path d="M5587 873 c-8 -45 -3 -53 31 -52 l27 0 -23 12 c-20 9 -23 16 -19 44
3 18 2 33 -2 33 -5 0 -11 -16 -14 -37z"/>
<path d="M5656 858 c-5 -29 -3 -44 6 -50 18 -11 36 -10 43 2 3 6 -4 10 -16 10
-20 0 -21 4 -15 40 3 22 2 40 -3 40 -4 0 -11 -19 -15 -42z"/>
<path d="M5738 879 c-21 -12 -24 -59 -6 -77 16 -16 43 -15 58 3 11 13 8 14
-17 9 -36 -7 -49 14 -28 43 12 15 17 16 34 5 23 -13 28 -3 9 16 -14 14 -27 15
-50 1z"/>
<path d="M4411 851 c-7 -12 -18 -20 -26 -18 -7 3 -18 0 -24 -6 -8 -8 -11 -7
-11 6 0 9 -4 17 -10 17 -5 0 -10 -10 -10 -22 0 -17 -3 -19 -12 -10 -20 20 -47
14 -54 -12 -3 -14 -3 -30 1 -35 8 -15 55 -14 55 0 0 8 5 8 15 -1 9 -8 15 -8
15 -2 0 7 18 9 46 6 40 -3 47 -1 52 18 5 20 6 20 19 3 12 -18 13 -17 13 8 0
15 5 27 10 27 6 0 10 -9 10 -19 0 -11 5 -23 10 -26 6 -4 10 5 10 19 0 14 5 26
10 26 6 0 10 -9 10 -21 0 -12 5 -19 13 -16 6 2 19 1 28 -4 26 -13 69 12 69 39
0 30 24 24 28 -6 2 -12 7 -20 12 -17 12 7 -4 60 -18 59 -7 -1 -19 -2 -27 -2
-9 -1 -15 -13 -16 -29 -1 -22 -2 -23 -6 -8 -8 29 -25 36 -50 19 -14 -8 -23
-10 -23 -4 0 7 -18 10 -45 9 -30 -2 -45 -7 -45 -16 0 -19 -20 -6 -29 20 l-8
21 -12 -23z m197 -34 c2 -10 -3 -17 -12 -17 -10 0 -16 9 -16 21 0 24 23 21 28
-4z m-222 -24 c-10 -10 -19 5 -10 18 6 11 8 11 12 0 2 -7 1 -15 -2 -18z m-81
-1 c0 -18 -20 -15 -23 4 -3 10 1 15 10 12 7 -3 13 -10 13 -16z m132 2 c-3 -3
-12 -4 -19 -1 -8 3 -5 6 6 6 11 1 17 -2 13 -5z"/>
<path d="M4187 844 c-10 -11 -8 -66 3 -84 8 -12 10 -11 10 7 0 15 7 23 23 25
34 5 31 52 -3 56 -14 2 -29 0 -33 -4z m47 -23 c3 -5 -3 -11 -14 -14 -13 -3
-20 0 -20 9 0 15 26 19 34 5z"/>
<path d="M5884 823 c-3 -16 -7 -33 -9 -40 -2 -7 0 -15 5 -18 6 -4 10 1 10 10
0 9 7 29 15 45 14 27 14 30 0 30 -8 0 -17 -12 -21 -27z"/>
<path d="M3880 825 c-9 -11 -16 -13 -24 -5 -29 29 -93 -10 -78 -49 9 -25 35
-41 57 -34 11 3 37 5 58 4 36 -2 53 14 21 21 -14 3 -13 6 5 22 21 19 21 19 21
-1 0 -11 7 -26 15 -33 23 -19 45 -4 45 30 0 16 4 30 9 30 5 0 16 3 25 6 22 9
20 -13 -4 -38 -27 -30 -25 -38 10 -38 17 0 30 5 30 10 0 6 -7 10 -16 10 -14 0
-14 2 -3 16 12 15 14 14 22 -4 13 -28 33 -34 52 -16 19 19 19 44 1 70 -12 16
-18 17 -34 7 -14 -8 -22 -9 -30 -1 -8 8 -19 8 -38 -1 -20 -9 -30 -9 -40 0 -11
9 -18 8 -32 -4 -15 -13 -19 -13 -30 -1 -16 18 -26 18 -42 -1z m34 -14 c3 -4
-6 -19 -19 -31 -24 -22 -25 -22 -25 -4 0 31 31 56 44 35z m71 -11 c7 -21 0
-40 -16 -40 -5 0 -9 14 -9 30 0 34 15 40 25 10z m135 -11 c0 -38 -24 -35 -28
4 -2 19 1 27 12 27 11 0 16 -10 16 -31z m-262 -6 c2 -8 -6 -13 -22 -13 -25 0
-33 10 -19 24 10 10 36 3 41 -11z"/>
<path d="M5510 824 c0 -8 5 -12 10 -9 6 3 10 10 10 16 0 5 -4 9 -10 9 -5 0
-10 -7 -10 -16z"/>
<path d="M5912 788 c2 -28 7 -33 28 -33 14 0 28 -4 33 -10 4 -6 10 0 13 13 9
31 24 28 24 -5 0 -19 3 -24 11 -16 6 6 9 21 7 34 -2 19 -9 24 -30 24 -14 -1
-24 3 -22 7 3 4 1 8 -5 8 -5 0 -13 -9 -16 -20 -9 -30 -33 -25 -27 5 2 15 0 25
-7 25 -8 0 -11 -12 -9 -32z"/>
<path d="M6051 779 c-11 -31 -15 -77 -4 -51 7 17 23 15 23 -3 0 -8 4 -15 9
-15 4 0 6 11 3 25 -2 14 0 25 6 25 6 0 12 -12 14 -27 2 -22 8 -28 28 -28 16 0
26 6 28 19 5 23 -23 47 -44 39 -8 -3 -14 0 -14 7 0 7 -8 9 -19 5 -16 -5 -18
-2 -14 15 8 32 -4 23 -16 -11z m93 -37 c2 -4 1 -14 -4 -22 -7 -11 -12 -12 -21
-3 -6 6 -8 16 -5 22 8 13 23 14 30 3z"/>
<path d="M7714 753 c2 -10 7 -33 11 -51 4 -18 11 -30 16 -26 5 3 7 10 3 15
-10 16 15 37 39 32 14 -3 8 4 -18 21 -47 30 -58 32 -51 9z"/>
<path d="M6202 713 c-14 -27 -3 -43 29 -43 16 0 29 -4 29 -10 0 -16 47 -12 54
5 15 39 -31 66 -58 34 -19 -22 -46 -25 -46 -5 0 19 23 33 28 18 2 -7 8 -10 13
-6 14 8 0 24 -21 24 -11 0 -23 -8 -28 -17z m98 -27 c0 -16 -18 -31 -27 -22 -8
8 5 36 17 36 5 0 10 -6 10 -14z"/>
<path d="M7648 720 c-10 -6 -14 -18 -11 -31 5 -17 11 -20 35 -15 21 4 28 2 25
-7 -2 -6 -14 -11 -26 -10 -13 2 -20 -1 -16 -7 9 -15 41 -12 55 5 18 21 -3 44
-35 37 -15 -2 -25 0 -25 7 0 6 9 11 21 11 11 0 17 5 14 10 -8 12 -15 12 -37 0z"/>
<path d="M6160 689 c0 -5 5 -7 10 -4 6 3 10 8 10 11 0 2 -4 4 -10 4 -5 0 -10
-5 -10 -11z"/>
<path d="M6330 674 c-12 -32 -12 -34 0 -34 6 0 10 6 10 14 0 16 18 31 26 23 3
-3 1 -14 -5 -26 -7 -12 -8 -22 -1 -26 5 -3 12 6 16 20 9 37 28 31 20 -7 -5
-31 -5 -32 9 -13 23 29 15 46 -28 61 -37 13 -38 12 -47 -12z"/>
<path d="M7600 695 c0 -4 7 -19 15 -34 25 -49 -14 -59 -44 -11 -10 16 -20 27
-24 24 -10 -10 35 -74 53 -74 32 0 43 25 30 65 -6 19 -16 35 -21 35 -5 0 -9
-2 -9 -5z"/>
<path d="M5420 670 c-27 -5 -31 -8 -18 -14 18 -8 79 7 63 15 -6 3 -26 2 -45
-1z"/>
<path d="M5503 663 c9 -2 23 -2 30 0 6 3 -1 5 -18 5 -16 0 -22 -2 -12 -5z"/>
<path d="M6501 652 c-15 -31 -22 -72 -11 -72 5 0 10 7 10 15 0 11 7 14 23 10
30 -8 55 18 38 39 -19 22 -50 26 -60 8z m49 -23 c0 -5 -9 -9 -20 -9 -19 0 -26
11 -14 23 8 8 34 -3 34 -14z"/>
<path d="M5015 639 c-82 -10 -213 -23 -290 -28 -77 -6 -141 -11 -142 -11 -2 0
-3 -5 -3 -11 0 -6 7 -8 15 -5 9 3 71 8 138 12 67 3 147 10 177 15 57 9 70 10
305 29 77 7 142 14 144 16 11 10 -209 0 -344 -17z"/>
<path d="M5628 643 c7 -3 16 -2 19 1 4 3 -2 6 -13 5 -11 0 -14 -3 -6 -6z"/>
<path d="M6570 604 c-14 -40 -6 -60 9 -23 l10 24 0 -27 c1 -29 14 -37 27 -16
6 9 10 5 14 -12 6 -23 8 -20 22 23 14 40 15 47 2 47 -7 0 -19 -9 -26 -20 -14
-22 -30 -27 -27 -7 7 55 -14 63 -31 11z"/>
<path d="M7442 580 c6 -22 14 -40 18 -40 4 0 2 18 -3 40 -6 22 -14 40 -18 40
-4 0 -2 -18 3 -40z"/>
<path d="M7472 611 c-10 -6 -11 -13 -1 -34 7 -15 16 -27 21 -27 5 0 4 9 -2 19
-13 26 -13 31 4 31 7 0 17 -10 21 -22 3 -13 9 -18 11 -11 7 16 -14 53 -29 53
-7 0 -18 -4 -25 -9z"/>
<path d="M6677 595 c-4 -8 5 -23 20 -35 29 -23 23 -41 -7 -22 -30 19 -38 14
-12 -8 13 -10 29 -17 36 -14 14 5 29 71 20 86 -9 14 -51 9 -57 -7z m50 -22
c-8 -7 -37 9 -31 19 3 5 12 4 20 -3 8 -6 13 -14 11 -16z"/>
<path d="M4400 580 c-19 -5 -72 -7 -117 -5 -54 3 -85 0 -89 -7 -9 -14 306 -2
320 12 12 12 -62 12 -114 0z"/>
<path d="M4538 583 c7 -3 16 -2 19 1 4 3 -2 6 -13 5 -11 0 -14 -3 -6 -6z"/>
<path d="M6752 558 c-11 -37 6 -65 32 -55 18 7 31 50 22 72 -10 28 -45 17 -54
-17z m41 -19 c-7 -26 -22 -34 -29 -15 -8 20 16 63 26 46 4 -7 5 -21 3 -31z"/>
<path d="M7306 582 c-4 -7 -4 -12 1 -13 4 0 -2 -4 -14 -9 -26 -10 -30 -42 -9
-59 21 -18 46 -2 45 28 -1 38 -14 68 -23 53z m4 -52 c0 -11 -4 -20 -9 -20 -11
0 -22 26 -14 34 12 12 23 5 23 -14z"/>
<path d="M6844 565 c-12 -9 -14 -14 -6 -15 10 0 12 -8 7 -30 -4 -17 -2 -30 3
-30 8 0 25 80 18 87 -1 2 -11 -4 -22 -12z"/>
<path d="M7343 564 c-8 -22 9 -49 33 -49 30 0 27 59 -4 63 -14 2 -25 -3 -29
-14z m47 -28 c0 -11 -19 -15 -25 -6 -3 5 1 10 9 10 9 0 16 -2 16 -4z"/>
<path d="M3832 519 c-45 -27 -82 -52 -82 -54 0 -3 40 16 89 42 87 45 92 46
208 53 l118 7 -125 1 -126 2 -82 -51z"/>
<path d="M6890 544 c-17 -44 18 -82 48 -52 8 8 18 9 35 1 24 -11 59 -1 39 11
-5 3 -7 17 -4 31 6 33 -11 32 -36 -1 l-19 -27 -6 32 c-8 40 -43 43 -57 5z m40
-14 c0 -20 -5 -30 -15 -30 -29 0 -18 50 13 59 1 1 2 -12 2 -29z"/>
<path d="M7160 545 c-6 -14 -10 -32 -11 -38 0 -7 -7 3 -15 21 -19 44 -34 40
-34 -8 0 -22 5 -40 11 -40 6 0 8 9 4 23 -6 22 -6 22 13 -2 19 -23 20 -23 30
-5 10 17 11 17 12 2 0 -10 5 -18 10 -18 12 0 10 79 -2 86 -4 3 -13 -7 -18 -21z"/>
<path d="M7213 544 c-17 -14 -16 -15 7 -9 l25 6 -25 -20 c-30 -24 -17 -46 22
-36 20 5 24 11 20 35 -5 35 -24 44 -49 24z m37 -38 c0 -3 -4 -8 -10 -11 -5 -3
-10 -1 -10 4 0 6 5 11 10 11 6 0 10 -2 10 -4z"/>
<path d="M7750 440 c-25 -10 -38 -19 -30 -19 17 1 101 37 85 38 -5 0 -30 -9
-55 -19z"/>
<path d="M3710 440 c-13 -8 -12 -10 3 -10 9 0 17 5 17 10 0 12 -1 12 -20 0z"/>
<path d="M3656 405 c-11 -8 -16 -15 -10 -15 5 0 18 7 28 15 11 8 16 15 10 15
-5 0 -18 -7 -28 -15z"/>
<path d="M7630 404 l-35 -14 35 6 c19 3 39 10 45 15 13 13 -3 10 -45 -7z"/>
<path d="M3585 375 c-40 -14 -40 -14 -5 -9 19 4 39 10 45 15 11 11 10 11 -40
-6z"/>
<path d="M7409 360 c-99 -16 -157 -35 -146 -47 3 -2 15 1 27 7 12 6 74 20 138
31 64 11 119 22 121 25 7 7 -27 3 -140 -16z"/>
</g>
</svg>
